<?xml version="1.0" standalone="no"?>
<!DOCTYPE svg PUBLIC "-//W3C//DTD SVG 20010904//EN"
 "http://www.w3.org/TR/2001/REC-SVG-20010904/DTD/svg10.dtd">
<svg version="1.0" xmlns="http://www.w3.org/2000/svg"
 width="240.000000pt" height="210.000000pt" viewBox="0 0 240.000000 210.000000"
 preserveAspectRatio="xMidYMid meet">

<g transform="translate(0.000000,210.000000) scale(0.100000,-0.100000)"
fill="#000000" stroke="none">
<path d="M1051 2039 c-65 -97 -122 -229 -145 -336 -7 -30 -5 -33 37 -51 51
-23 119 -88 137 -132 15 -35 26 -38 35 -9 12 37 82 104 134 129 28 13 51 29
51 36 0 22 -51 155 -87 229 -31 63 -111 195 -118 195 -2 0 -22 -28 -44 -61z"/>
<path d="M555 1606 l-40 -12 32 -7 c60 -12 110 -71 127 -148 5 -23 12 -27 61
-32 75 -8 162 -56 232 -131 32 -33 66 -72 76 -86 17 -25 17 -25 11 25 -23 176
-142 343 -278 388 -57 20 -163 21 -221 3z"/>
<path d="M1451 1599 c-53 -17 -74 -31 -130 -87 -36 -37 -78 -90 -93 -118 -28
-52 -58 -159 -57 -204 l0 -25 17 25 c9 14 44 53 76 88 68 71 151 117 232 127
51 7 51 7 63 55 14 54 59 103 111 121 l35 13 -55 12 c-76 18 -124 16 -199 -7z"/>
<path d="M160 1334 c0 -2 37 -22 82 -45 131 -69 178 -129 198 -254 25 -157
101 -216 305 -236 96 -9 335 -12 335 -4 0 16 -57 150 -86 204 -72 131 -157
221 -241 256 -55 23 -214 54 -334 64 -140 13 -259 19 -259 15z"/>
<path d="M1845 1319 c-192 -15 -344 -49 -422 -95 -83 -48 -199 -218 -262 -383
l-20 -53 207 4 c184 4 214 7 275 28 54 18 76 32 102 64 41 50 52 77 65 163 19
116 63 168 212 249 l63 34 -60 -2 c-33 0 -105 -4 -160 -9z"/>
<path d="M380 716 c0 -2 -27 -72 -59 -155 l-59 -151 32 0 c27 0 34 5 45 35
l12 35 64 0 63 0 12 -35 c10 -31 16 -35 45 -35 l34 0 -62 153 c-61 149 -63
152 -94 155 -18 2 -33 1 -33 -2z m69 -173 c1 -8 -13 -13 -39 -13 l-39 0 15 43
c8 23 17 49 20 57 4 10 12 0 24 -30 11 -25 19 -51 19 -57z"/>
<path d="M600 566 l0 -156 75 0 c43 0 90 6 110 14 83 35 99 190 27 260 -26 24
-39 28 -121 33 l-91 6 0 -157z m171 78 c15 -13 19 -31 19 -81 0 -80 -19 -103
-85 -103 l-45 0 0 98 c0 54 3 102 8 106 12 13 82 -1 103 -20z"/>
<path d="M910 565 l0 -155 115 0 115 0 0 25 c0 25 -1 25 -85 25 l-85 0 0 45 0
45 81 0 c78 0 80 1 77 23 -3 20 -9 22 -81 25 l-78 3 3 32 3 32 83 3 c79 3 83
4 80 25 -3 21 -8 22 -115 25 l-113 3 0 -156z"/>
<path d="M1200 566 l0 -156 30 0 30 0 0 70 0 70 60 0 60 0 0 -70 0 -70 30 0
30 0 0 155 0 155 -30 0 -30 0 0 -60 0 -60 -60 0 -59 0 -3 58 c-3 54 -4 57 -30
60 l-28 3 0 -155z"/>
<path d="M1510 564 l0 -156 101 4 c96 3 102 4 125 31 32 37 31 81 -1 111 -22
21 -23 24 -8 39 21 20 21 73 1 93 -20 21 -80 33 -155 34 l-63 0 0 -156z m164
90 c32 -31 11 -55 -53 -62 l-51 -5 0 42 0 41 44 0 c27 0 51 -6 60 -16z m12
-125 c20 -16 17 -47 -5 -59 -11 -5 -40 -10 -65 -10 l-46 0 0 46 0 47 51 -6
c28 -4 57 -12 65 -18z"/>
<path d="M1847 573 c-32 -82 -57 -151 -57 -155 0 -5 13 -8 29 -8 25 0 31 6 41
35 l12 35 63 0 63 0 12 -35 c10 -31 16 -35 46 -35 l34 0 -13 33 c-7 17 -35 87
-62 155 -48 120 -49 122 -80 122 -31 0 -31 -1 -88 -147z m119 -17 c6 -25 4
-26 -35 -26 l-41 0 20 53 c11 28 20 54 21 57 1 8 27 -55 35 -84z"/>
<path d="M2124 707 c-2 -7 -3 -76 -2 -152 l3 -140 28 -3 c26 -3 27 -1 27 40 0
36 6 50 29 72 l29 28 41 -71 c41 -69 43 -71 82 -71 l40 0 -39 58 c-21 31 -49
74 -61 95 l-24 39 59 59 58 59 -41 0 c-38 0 -45 -5 -98 -65 -32 -36 -61 -65
-66 -65 -5 0 -9 29 -9 65 0 63 -1 65 -25 65 -14 0 -28 -6 -31 -13z"/>
<path d="M30 560 l0 -150 110 0 110 0 0 25 c0 23 -3 24 -77 27 l-78 3 -3 123
-3 122 -29 0 -30 0 0 -150z"/>
<path d="M182 238 c3 -7 22 -61 43 -121 35 -100 39 -107 64 -107 25 0 29 7 66
112 22 61 42 115 43 120 2 4 -8 8 -22 8 -22 0 -27 -8 -52 -85 -16 -47 -31 -85
-34 -85 -3 0 -18 38 -34 85 -25 77 -30 85 -53 85 -16 0 -24 -5 -21 -12z"/>
<path d="M430 130 l0 -120 90 0 c83 0 90 1 90 20 0 18 -7 20 -65 20 l-65 0 0
35 0 35 60 0 c47 0 60 3 60 15 0 12 -13 15 -60 15 l-60 0 0 30 0 30 65 0 c58
0 65 2 65 20 0 19 -7 20 -90 20 l-90 0 0 -120z"/>
<path d="M660 130 c0 -113 1 -120 20 -120 18 0 20 7 20 75 0 41 3 75 8 75 4 0
27 -34 51 -75 35 -59 50 -75 68 -75 23 0 23 1 23 120 0 113 -1 120 -20 120
-17 0 -19 -8 -22 -80 l-3 -80 -49 80 c-39 64 -53 80 -72 80 -24 0 -24 0 -24
-120z"/>
<path d="M890 230 c0 -16 7 -20 35 -20 l35 0 1 -92 c1 -51 1 -96 0 -100 0 -5
10 -8 24 -8 25 0 25 0 25 100 l0 100 35 0 c28 0 35 4 35 20 0 19 -7 20 -95 20
-88 0 -95 -1 -95 -20z"/>
<path d="M1120 152 c0 -110 12 -134 70 -147 38 -8 97 11 110 35 6 10 10 62 10
114 0 87 -2 96 -19 96 -16 0 -19 -10 -23 -91 -3 -75 -8 -94 -23 -105 -24 -17
-36 -18 -59 -1 -15 11 -19 32 -24 105 -4 81 -7 92 -23 92 -17 0 -19 -9 -19
-98z"/>
<path d="M1370 130 c0 -113 1 -120 20 -120 17 0 20 7 20 50 0 47 2 50 25 50
19 0 33 -12 57 -50 27 -40 39 -50 61 -50 l28 0 -18 31 c-10 17 -28 41 -41 54
l-22 23 24 6 c28 7 47 51 35 83 -12 33 -40 43 -118 43 l-71 0 0 -120z m145 70
c3 -6 3 -19 0 -30 -5 -16 -15 -20 -56 -20 -48 0 -49 1 -49 30 0 29 1 30 49 30
28 0 53 -5 56 -10z"/>
<path d="M1620 130 l0 -120 90 0 c83 0 90 1 90 20 0 18 -7 20 -70 20 l-70 0 0
35 0 35 65 0 c50 0 65 3 65 15 0 10 -16 15 -62 17 -60 3 -63 4 -66 31 -3 27
-3 27 61 27 56 0 65 3 70 20 5 19 0 20 -84 20 l-89 0 0 -120z"/>
<path d="M1860 230 c-43 -43 -14 -92 66 -116 47 -13 55 -19 52 -37 -2 -13 -14
-26 -32 -32 -25 -8 -31 -6 -52 18 -38 44 -73 34 -49 -14 31 -59 147 -61 174
-3 25 56 0 90 -84 114 -31 9 -45 18 -45 30 0 34 52 40 77 10 20 -23 53 -27 53
-5 0 32 -38 55 -90 55 -37 0 -55 -5 -70 -20z"/>
</g>
</svg>
