<?xml version="1.0" standalone="no"?>
<!DOCTYPE svg PUBLIC "-//W3C//DTD SVG 20010904//EN"
 "http://www.w3.org/TR/2001/REC-SVG-20010904/DTD/svg10.dtd">
<svg version="1.0" xmlns="http://www.w3.org/2000/svg"
 width="857.000000pt" height="999.000000pt" viewBox="0 0 857.000000 999.000000"
 preserveAspectRatio="xMidYMid meet">

<g transform="translate(0.000000,999.000000) scale(0.100000,-0.100000)"
fill="#000000" stroke="none">
<path d="M1528 8387 c-131 -67 -242 -127 -248 -133 -15 -15 143 -334 165 -334
8 0 96 41 196 90 99 50 184 88 188 85 5 -3 14 -27 21 -55 11 -47 27 -74 27
-47 0 7 5 42 12 79 12 60 17 69 47 87 19 11 34 26 34 33 0 7 -36 81 -79 163
-66 127 -82 150 -102 152 -14 1 -128 -52 -261 -120z m156 -31 c55 -23 61 -58
24 -166 -25 -75 -33 -90 -47 -85 -9 4 -47 18 -85 31 -88 30 -106 47 -106 95 0
44 35 79 81 79 16 0 29 5 29 10 0 8 57 50 68 50 1 0 18 -6 36 -14z"/>
<path d="M3505 8373 c-199 -45 -345 -228 -345 -431 0 -48 25 -145 51 -200 55
-113 193 -211 326 -232 163 -27 345 54 433 190 102 159 95 367 -18 515 -98
129 -285 195 -447 158z m197 -217 c143 -67 178 -97 178 -149 0 -31 -110 -278
-138 -310 -8 -9 -32 -22 -53 -28 -35 -11 -44 -8 -171 51 -225 105 -230 115
-130 322 40 85 79 152 93 161 40 29 81 20 221 -47z"/>
<path d="M3452 8021 c-34 -71 -62 -136 -62 -144 0 -21 12 -28 148 -93 96 -45
128 -55 140 -48 23 15 130 233 131 267 1 27 -7 32 -124 88 -69 32 -135 59
-148 59 -21 0 -32 -17 -85 -129z m208 24 c61 -32 79 -121 35 -174 -35 -40 -84
-56 -130 -41 -66 22 -101 100 -71 158 34 67 102 90 166 57z m118 -27 c14 -14
-2 -48 -22 -48 -20 0 -39 27 -32 45 6 18 37 20 54 3z"/>
<path d="M3558 7964 c-21 -45 21 -87 66 -66 28 13 36 58 14 80 -22 22 -67 14
-80 -14z"/>
<path d="M6320 7295 c-498 -236 -574 -276 -578 -303 -3 -20 221 -510 251 -549
14 -19 63 -16 108 7 l40 21 136 -72 137 -72 -67 97 c-37 53 -67 100 -67 104 0
5 46 30 103 57 396 187 527 255 537 277 10 20 -6 59 -115 288 -118 248 -142
290 -170 290 -5 0 -147 -65 -315 -145z m278 -80 c23 -27 29 -74 12 -105 -8
-15 -5 -19 25 -24 20 -4 44 -19 60 -38 23 -27 26 -39 22 -76 -3 -26 -14 -53
-28 -69 -31 -33 -95 -62 -136 -63 -29 0 -33 3 -33 25 0 20 5 25 26 25 38 0 94
30 106 56 8 17 7 32 -2 54 -14 33 -45 46 -88 36 -50 -13 -66 -11 -70 6 -2 11
8 23 28 33 41 21 56 60 35 91 -21 33 -57 30 -100 -8 -34 -29 -37 -30 -53 -15
-15 15 -14 19 9 43 62 67 143 79 187 29z m-287 -162 c61 -58 61 -85 4 -251
-26 -75 -51 -141 -55 -145 -6 -7 -208 58 -277 90 -45 21 -73 70 -73 128 0 42
5 52 39 86 38 38 55 44 123 39 19 -1 28 5 33 19 11 35 74 71 123 71 36 0 49
-6 83 -37z"/>
<path d="M2530 7257 c0 -1 9 -20 19 -41 11 -21 23 -62 27 -92 6 -51 11 -58 67
-110 34 -30 67 -53 73 -52 21 5 144 149 144 168 0 25 -119 130 -147 130 -13 0
-31 -12 -45 -30 -12 -16 -26 -30 -31 -30 -5 0 -25 14 -44 30 -28 25 -63 40
-63 27z"/>
<path d="M2518 7035 c-18 -23 -17 -24 57 -90 l75 -67 19 23 19 24 -61 55 c-90
82 -89 81 -109 55z"/>
<path d="M3540 6900 c-11 -11 -20 -28 -20 -37 0 -24 51 -143 61 -143 20 0 125
52 137 67 29 40 0 93 -51 93 -15 0 -36 9 -47 20 -11 11 -29 20 -40 20 -11 0
-29 -9 -40 -20z"/>
<path d="M920 6854 c-257 -69 -390 -362 -276 -609 31 -68 119 -163 185 -198
90 -50 267 -70 319 -38 11 6 -1 41 -54 152 -37 79 -68 145 -69 147 -2 2 -28
-9 -60 -23 -32 -14 -59 -25 -61 -25 -4 0 -44 91 -44 101 0 5 24 21 53 35 28
15 53 27 55 29 1 1 -12 32 -29 69 -52 112 -25 183 93 242 39 19 71 34 72 32
21 -40 45 -101 42 -107 -3 -4 -27 -18 -55 -31 -59 -27 -63 -44 -30 -113 l21
-43 59 28 c32 15 61 28 64 28 7 0 57 -101 53 -106 -2 -2 -31 -16 -65 -31 l-60
-28 71 -152 c39 -84 73 -153 76 -153 3 0 28 20 55 44 102 89 151 216 142 363
-17 274 -285 460 -557 387z"/>
<path d="M2960 6529 c-110 -22 -217 -108 -268 -217 l-27 -57 -3 -693 -3 -694
32 -36 c18 -20 41 -56 53 -81 l21 -46 5 751 c5 825 1 773 67 801 50 20 1998
19 2049 -2 69 -29 64 156 64 -2335 0 -1923 -2 -2256 -14 -2285 -29 -69 37 -66
-1092 -63 l-1016 3 -29 33 -29 32 -1 1363 c-1 787 -5 1349 -10 1332 -4 -16
-22 -101 -39 -188 -16 -87 -37 -171 -45 -187 -14 -26 -15 -167 -13 -1192 l3
-1163 29 -60 c38 -76 105 -143 181 -181 l60 -29 894 -3 c986 -3 952 -5 1053
60 63 40 105 89 142 168 l31 65 3 2269 c1 1494 -1 2289 -8 2324 -29 161 -142
278 -298 311 -64 13 -1722 14 -1792 0z"/>
<path d="M1901 6076 c-6 -7 -24 -16 -40 -19 -62 -13 -47 -64 28 -95 l50 -21
21 55 c15 42 18 60 10 75 -12 22 -52 25 -69 5z"/>
<path d="M36 5274 c-14 -13 -16 -61 -16 -370 0 -417 -6 -394 108 -395 l67 0
108 -146 c59 -80 106 -135 102 -122 -5 23 -45 256 -45 265 0 2 186 4 413 4
357 0 416 2 435 16 l22 15 0 359 c0 313 -2 361 -16 374 -14 14 -81 16 -589 16
-508 0 -575 -2 -589 -16z m556 -148 l35 -23 27 20 c16 11 49 22 76 25 112 10
187 -78 165 -194 -5 -30 -31 -62 -132 -166 -70 -70 -131 -128 -137 -128 -17 0
-242 231 -260 267 -35 71 -10 151 63 200 47 32 116 31 163 -1z"/>
<path d="M3746 3908 c12 -15 41 -44 65 -64 61 -50 68 -58 44 -50 -15 5 -17 4
-8 -4 6 -7 17 -9 25 -4 10 7 -6 26 -67 79 -44 39 -70 58 -59 43z"/>
<path d="M1430 3730 c-12 -12 -19 -28 -16 -35 3 -8 10 -32 16 -54 10 -38 13
-41 38 -35 66 16 92 32 92 59 0 20 -8 30 -32 41 -18 8 -43 21 -55 30 -20 14
-23 14 -43 -6z"/>
<path d="M5696 3584 c-38 -30 -71 -56 -74 -58 -2 -2 4 -16 13 -30 l17 -25 76
61 c42 33 79 62 81 64 5 5 -30 44 -38 44 -3 -1 -37 -25 -75 -56z"/>
<path d="M5980 3560 c-8 -5 -49 -10 -91 -10 l-76 0 -67 -51 c-36 -28 -66 -54
-66 -57 0 -7 78 -112 108 -144 14 -16 34 -28 44 -28 27 0 148 98 148 120 0 10
-11 32 -25 48 -14 17 -25 34 -25 38 0 5 18 22 40 37 48 34 57 78 10 47z"/>
<path d="M6225 3066 c-223 -54 -374 -280 -337 -503 44 -266 299 -435 555 -368
157 41 265 142 317 296 18 53 21 81 18 159 -3 85 -8 104 -40 173 -93 195 -303
294 -513 243z m220 -356 c63 -80 115 -152 115 -161 0 -40 -29 -48 -215 -58
-186 -11 -205 -8 -205 28 0 24 137 323 153 333 6 4 18 7 25 5 7 -1 64 -67 127
-147z"/>
</g>
</svg>
